<?xml version="1.0" encoding="UTF-8"?>
<svg version="1.1" xmlns="http://www.w3.org/2000/svg" width="43" height="38">
<path d="M0 0 C5.4809035 -0.09893328 10.96128645 -0.17149865 16.44287109 -0.21972656 C18.30722101 -0.23983261 20.17150794 -0.2671218 22.03564453 -0.30175781 C24.71662948 -0.35032121 27.39678023 -0.37297838 30.078125 -0.390625 C30.91055725 -0.41127014 31.7429895 -0.43191528 32.60064697 -0.45318604 C36.2272235 -0.45458984 38.38775788 -0.37102722 41.53320312 1.53515625 C43.55931 4.93987912 43.50035095 7.98514768 43.390625 11.828125 C43.38496521 12.57713074 43.37930542 13.32613647 43.37347412 14.09783936 C43.35114057 16.482552 43.30095386 18.86574408 43.25 21.25 C43.22993091 22.86976991 43.21168085 24.48956346 43.1953125 26.109375 C43.15128624 30.07349966 43.08228298 34.03649232 43 38 C39.7 38 36.4 38 33 38 C33 33.05 33 28.1 33 23 C30.03 23 27.06 23 24 23 C24 27.95 24 32.9 24 38 C16.08 38 8.16 38 0 38 C1 30 1 30 2 29 C2.04063832 27.33382885 2.042721 25.66611905 2 24 C1.34 23.67 0.68 23.34 0 23 C-0.25 17.375 -0.25 17.375 2 14 C2.37167184 11.23979004 2.17850636 8.81147524 2 6 C1.34 5.34 0.68 4.68 0 4 C0 2.68 0 1.36 0 0 Z M24 8 C24 10.64 24 13.28 24 16 C26.97 16 29.94 16 33 16 C33 13.36 33 10.72 33 8 C30.03 8 27.06 8 24 8 Z " fill="#617256" transform="translate(0,0)"/>
<path d="M0 0 C3.70825483 -0.28331319 7.29967303 -0.43052405 11 0 C13.25 2.125 13.25 2.125 14 5 C13.76576872 8.90385466 13.18666686 10.71999971 11 14 C8.6171875 14.29296875 8.6171875 14.29296875 5.875 14.1875 C4.96492187 14.16042969 4.05484375 14.13335937 3.1171875 14.10546875 C2.41851562 14.07066406 1.71984375 14.03585938 1 14 C1.33 13.01 1.66 12.02 2 11 C2.23887949 6.62054275 2.12324394 3.81848218 0 0 Z " fill="#FEFEFE" transform="translate(3,20)"/>
<path d="M0 0 C1.79133978 -0.05391993 3.58313899 -0.09275571 5.375 -0.125 C6.37273438 -0.14820313 7.37046875 -0.17140625 8.3984375 -0.1953125 C11 0 11 0 13 2 C13.33546255 7.19966951 13.37650833 9.24698333 11 14 C7.7 14 4.4 14 1 14 C1.33 13.01 1.66 12.02 2 11 C2.23887949 6.62054275 2.12324394 3.81848218 0 0 Z " fill="#FEFEFE" transform="translate(3,3)"/>
<path d="" fill="#808080" transform="translate(0,0)"/>
</svg>
