<?xml version="1.0" encoding="UTF-8"?>
<svg version="1.1" xmlns="http://www.w3.org/2000/svg" width="63" height="38">
<path d="M0 0 C7.7711927 -0.04632557 15.54235309 -0.08187029 23.31364918 -0.10362434 C26.92212105 -0.11406482 30.53049849 -0.12822873 34.13891602 -0.15087891 C37.62076942 -0.17259804 41.10253195 -0.18456664 44.58444786 -0.18975449 C46.56038283 -0.19525227 48.53628122 -0.21086668 50.51216125 -0.22659302 C51.71317978 -0.22674408 52.9141983 -0.22689514 54.15161133 -0.22705078 C55.74045891 -0.23371262 55.74045891 -0.23371262 57.36140442 -0.24050903 C60 -0 60 -0 63 2 C63.2667616 4.76628915 63.34804189 7.30619631 63.29296875 10.0703125 C63.28872391 10.86654022 63.28447906 11.66276794 63.28010559 12.48312378 C63.26328834 15.03075729 63.22563179 17.57760489 63.1875 20.125 C63.17245705 21.85024901 63.15876796 23.57551039 63.14648438 25.30078125 C63.11337501 29.53415782 63.06157285 33.76694559 63 38 C58.71 38 54.42 38 50 38 C50 33.71 50 29.42 50 25 C45.38 25 40.76 25 36 25 C36 29.29 36 33.58 36 38 C24.12 38 12.24 38 0 38 C0.33 36.35 0.66 34.7 1 33 C1.66 33 2.32 33 3 33 C3 31.68 3 30.36 3 29 C3.66 29 4.32 29 5 29 C5 27.35 5 25.7 5 24 C4.34 24 3.68 24 3 24 C3 23.34 3 22.68 3 22 C2.01 22.33 1.02 22.66 0 23 C0 21.02 0 19.04 0 17 C0.99 16.67 1.98 16.34 3 16 C3 15.34 3 14.68 3 14 C3.66 14 4.32 14 5 14 C5 11.36 5 8.72 5 6 C2.525 5.01 2.525 5.01 0 4 C0 2.68 0 1.36 0 0 Z M36 8 C36 10.97 36 13.94 36 17 C40.62 17 45.24 17 50 17 C50 14.03 50 11.06 50 8 C45.38 8 40.76 8 36 8 Z " fill="#627356" transform="translate(0,0)"/>
<path d="M0 0 C2.62506802 -0.02690844 5.24986173 -0.04679404 7.875 -0.0625 C8.62136719 -0.07087891 9.36773437 -0.07925781 10.13671875 -0.08789062 C15.7734375 -0.11328125 15.7734375 -0.11328125 18 1 C18 1.66 18 2.32 18 3 C18.66 3 19.32 3 20 3 C21.125 8.75 21.125 8.75 20 11 C19.34 11 18.68 11 18 11 C18 11.66 18 12.32 18 13 C14.93466836 14.53266582 11.73245728 14.10276471 8.375 14.0625 C7.66859375 14.05798828 6.9621875 14.05347656 6.234375 14.04882812 C4.48954725 14.03703875 2.744763 14.01910324 1 14 C1.66 13.67 2.32 13.34 3 13 C3 9.37 3 5.74 3 2 C2.01 1.67 1.02 1.34 0 1 C0 0.67 0 0.34 0 0 Z " fill="#FEFEFE" transform="translate(5,20)"/>
<path d="M0 0 C2.58361518 -0.05407567 5.16609255 -0.093707 7.75 -0.125 C8.84441406 -0.15013672 8.84441406 -0.15013672 9.9609375 -0.17578125 C13.8044624 -0.21072239 16.74606772 -0.17499684 20 2 C20 4.64 20 7.28 20 10 C19.34 10 18.68 10 18 10 C18 10.66 18 11.32 18 12 C17.34 12 16.68 12 16 12 C16 12.66 16 13.32 16 14 C11.05 14 6.1 14 1 14 C1 13.34 1 12.68 1 12 C1.66 11.67 2.32 11.34 3 11 C3 8.03 3 5.06 3 2 C2.01 1.67 1.02 1.34 0 1 C0 0.67 0 0.34 0 0 Z " fill="#FEFEFE" transform="translate(5,3)"/>
<path d="M0 0 C2 1 2 1 2 1 Z " fill="#808080" transform="translate(1,24)"/>
</svg>
